# xmcd CD database file
#
# Track frame offsets:
#	150
#	14076
#	35055
#	52057
#	68912
#	88141
#	107576
#	127951
#	142625
#	157963
#	169100
#	188830
#	206576
#	224464
#
# Disc length: 3195 seconds
#
# Revision: 7
# Processed by: cddbd v1.5.2PL0 Copyright (c) Steve Scherf et al.
# Submitted via: CDex 1.51
#
DISCID=c80c790e
DTITLE=Bartosova Iveta - Bily kamen
DYEAR=1999
DGENRE=Pop
TTITLE0=Bily kamen
TTITLE1=Lipo staleta
TTITLE2=Poklad
TTITLE3=Jeskyne
TTITLE4=Az vitr odleti
TTITLE5=Vodopady v risi zapomneni
TTITLE6=Nad jezerem
TTITLE7=Souteska
TTITLE8=Vzdavam se malokdy rada
TTITLE9=Utikam pred tebou
TTITLE10=Mam prijmout zakon?
TTITLE11=Za pruhlednou zdi
TTITLE12=V oblacich
TTITLE13=S laskou je kriz
EXTD=YEAR: 1999
EXTT0=
EXTT1=
EXTT2=
EXTT3=
EXTT4=
EXTT5=
EXTT6=
EXTT7=
EXTT8=
EXTT9=
EXTT10=
EXTT11=
EXTT12=
EXTT13=
PLAYORDER=
